<svg xmlns="http://www.w3.org/2000/svg" width="332.802" height="74.046" viewBox="0 0 332.802 74.046"><g transform="translate(-105.698 -57)"><path d="M45.184,16.617a12.621,12.621,0,0,1,8.234,5.41,24.142,24.142,0,0,1,3.859,10.048,32.037,32.037,0,0,1-.129,11.078,34.809,34.809,0,0,1-6.176,15.329q-5.534,7.472-13.9,7.471a9.769,9.769,0,0,1-4.5-1.288,7.272,7.272,0,0,0-7.464,0,9.769,9.769,0,0,1-4.5,1.288q-8.363,0-13.9-7.471A34.809,34.809,0,0,1,.536,43.154,32.037,32.037,0,0,1,.407,32.076,24.142,24.142,0,0,1,4.266,22.028a12.621,12.621,0,0,1,8.234-5.41q3.088-.516,8.492.9a35.669,35.669,0,0,1,7.849,3.092,35.669,35.669,0,0,1,7.849-3.092Q42.1,16.1,45.184,16.617Zm-7.077-5.282a10.892,10.892,0,0,1-4.761,2.448,15.032,15.032,0,0,1-4.5.644l-1.93-.129a16.53,16.53,0,0,1,0-4.122,11.492,11.492,0,0,1,2.959-7.085A10.892,10.892,0,0,1,34.633.644,15.032,15.032,0,0,1,39.136,0l1.93.129.129,1.932a15.109,15.109,0,0,1-.643,4.509,10.889,10.889,0,0,1-2.445,4.766Z" transform="translate(105.711 57)" fill="#f27f0b"/><text transform="translate(187.5 113.046)" fill="#f27f0b" font-size="52" font-family="Poppins-Medium, Poppins" font-weight="500"><tspan x="0" y="0">Bio&amp;fresh</tspan></text><path d="M94.484,1.176a16.822,16.822,0,0,1-7.02-1.4,10.928,10.928,0,0,1-4.79-4.06A11.164,11.164,0,0,1,80.984-10.4a11.63,11.63,0,0,1,2.227-6.976,14.376,14.376,0,0,1,5.946-4.562,12.6,12.6,0,0,1-1.8-3.021,10.051,10.051,0,0,1-.659-3.693,8.152,8.152,0,0,1,1.3-4.537,8.9,8.9,0,0,1,3.713-3.142,12.732,12.732,0,0,1,5.519-1.141,11.368,11.368,0,0,1,5.464,1.23,8.177,8.177,0,0,1,3.428,3.4,8.609,8.609,0,0,1,.914,4.8l-.038.458h-6.9l.014-.514a3.606,3.606,0,0,0-.8-2.637,3,3,0,0,0-2.337-.906,3.361,3.361,0,0,0-2.437.876,2.776,2.776,0,0,0-.911,2.108,4.993,4.993,0,0,0,.738,2.53,21.947,21.947,0,0,0,2.762,3.467l9.11,9.061,3.508-5.781H117.3l-5.124,8.768-1.095,1.8L120.448.5h-9.167l-4.269-4.269A17.89,17.89,0,0,1,101.54-.136,18.319,18.319,0,0,1,94.484,1.176ZM97.24-36.472a11.745,11.745,0,0,0-5.089,1.043,7.918,7.918,0,0,0-3.307,2.786A7.169,7.169,0,0,0,87.7-28.652a9.057,9.057,0,0,0,.589,3.327,12.477,12.477,0,0,0,2.052,3.27l.435.525-.631.257a13.775,13.775,0,0,0-6.128,4.485A10.65,10.65,0,0,0,81.984-10.4a10.182,10.182,0,0,0,1.533,5.581A9.946,9.946,0,0,0,87.88-1.131a15.835,15.835,0,0,0,6.6,1.307,17.327,17.327,0,0,0,6.672-1.236,17.086,17.086,0,0,0,5.506-3.766l.354-.354L111.7-.5h6.329L109.816-8.66l1.5-2.465,4.238-7.251h-5.243l-3.876,6.387L96.406-21.968a22.888,22.888,0,0,1-2.9-3.65,5.977,5.977,0,0,1-.874-3.034,3.777,3.777,0,0,1,1.221-2.832,4.37,4.37,0,0,1,3.127-1.152,4,4,0,0,1,3.071,1.226,4.313,4.313,0,0,1,1.065,2.83h4.961a7.5,7.5,0,0,0-.829-3.791,7.194,7.194,0,0,0-3.02-2.991A10.389,10.389,0,0,0,97.24-36.472ZM202.852.968A15,15,0,0,1,196.586-.3a11.182,11.182,0,0,1-4.432-3.485,8.824,8.824,0,0,1-1.762-4.984l-.021-.52h7.115l.039.457a3.674,3.674,0,0,0,1.549,2.689,5.868,5.868,0,0,0,3.673,1.118,6.258,6.258,0,0,0,3.588-.872,2.411,2.411,0,0,0,1.164-2.06A2.032,2.032,0,0,0,206.239-9.9a28.456,28.456,0,0,0-4.771-1.68,47.611,47.611,0,0,1-5.306-1.735,9.745,9.745,0,0,1-3.7-2.684,7.19,7.19,0,0,1-1.6-4.851,7.577,7.577,0,0,1,1.445-4.476,9.534,9.534,0,0,1,4.083-3.159,15.035,15.035,0,0,1,6-1.133,12.508,12.508,0,0,1,8.2,2.585,9.387,9.387,0,0,1,3.379,7.1l.026.524h-6.914l-.037-.46a3.71,3.71,0,0,0-1.377-2.721,5.381,5.381,0,0,0-3.48-1.032,5.722,5.722,0,0,0-3.3.792A2.245,2.245,0,0,0,197.84-20.9a2.035,2.035,0,0,0,.674,1.559,5.457,5.457,0,0,0,1.859,1.118c.782.289,1.958.661,3.5,1.1a39.12,39.12,0,0,1,5.186,1.712,10.075,10.075,0,0,1,3.637,2.652,7.185,7.185,0,0,1,1.632,4.74v.009a7.936,7.936,0,0,1-1.443,4.655,9.5,9.5,0,0,1-4.029,3.186A14.8,14.8,0,0,1,202.852.968ZM191.429-8.288a7.831,7.831,0,0,0,1.529,3.908A10.2,10.2,0,0,0,197-1.209a14.007,14.007,0,0,0,5.85,1.177,13.814,13.814,0,0,0,5.6-1.049,8.513,8.513,0,0,0,3.615-2.846A6.954,6.954,0,0,0,213.324-8a6.218,6.218,0,0,0-1.384-4.1,9.083,9.083,0,0,0-3.279-2.392,38.159,38.159,0,0,0-5.054-1.666l-.01,0c-1.564-.452-2.765-.832-3.571-1.129a6.449,6.449,0,0,1-2.2-1.326,3.026,3.026,0,0,1-.99-2.289,3.224,3.224,0,0,1,1.459-2.748,6.662,6.662,0,0,1,3.877-.976,6.34,6.34,0,0,1,4.112,1.256,4.649,4.649,0,0,1,1.687,2.956h4.949a8.183,8.183,0,0,0-2.98-5.849,11.544,11.544,0,0,0-7.56-2.355,14.047,14.047,0,0,0-5.6,1.051,8.553,8.553,0,0,0-3.665,2.821,6.6,6.6,0,0,0-1.259,3.9,6.225,6.225,0,0,0,1.36,4.2,8.754,8.754,0,0,0,3.321,2.412,46.673,46.673,0,0,0,5.194,1.7,29.353,29.353,0,0,1,4.956,1.752A3.05,3.05,0,0,1,208.5-7.956a3.389,3.389,0,0,1-1.592,2.88,7.206,7.206,0,0,1-4.16,1.052,6.839,6.839,0,0,1-4.283-1.326,4.73,4.73,0,0,1-1.874-2.938ZM172.692.968a15.193,15.193,0,0,1-7.6-1.911A13.686,13.686,0,0,1,159.8-6.337a16.428,16.428,0,0,1-1.908-8.015,16.8,16.8,0,0,1,1.853-8.01,13.165,13.165,0,0,1,5.241-5.374,15.572,15.572,0,0,1,7.706-1.884,15.152,15.152,0,0,1,7.471,1.831,13.042,13.042,0,0,1,5.134,5.161,15.517,15.517,0,0,1,1.83,7.6,19.12,19.12,0,0,1-.214,2.991l-.067.421H165.082a7.356,7.356,0,0,0,2.331,4.642,7.593,7.593,0,0,0,5.28,1.95A6.422,6.422,0,0,0,179-8.749l.138-.279h7.4l-.216.656a13.455,13.455,0,0,1-4.883,6.72A14.356,14.356,0,0,1,172.692.968Zm0-29.588a14.586,14.586,0,0,0-7.218,1.756,12.181,12.181,0,0,0-4.847,4.974,15.817,15.817,0,0,0-1.735,7.538,15.443,15.443,0,0,0,1.784,7.533,12.7,12.7,0,0,0,4.9,5.006,14.207,14.207,0,0,0,7.111,1.781,13.383,13.383,0,0,0,8.152-2.424,12.477,12.477,0,0,0,4.293-5.572h-5.381a7.422,7.422,0,0,1-7.065,4,8.564,8.564,0,0,1-5.952-2.21,8.469,8.469,0,0,1-2.71-5.844l-.041-.538h22a19.091,19.091,0,0,0,.141-2.412,14.532,14.532,0,0,0-1.706-7.116,12.056,12.056,0,0,0-4.746-4.771A14.166,14.166,0,0,0,172.692-28.62ZM62.816.968a15.234,15.234,0,0,1-7.577-1.91A13.813,13.813,0,0,1,49.9-6.334a16.249,16.249,0,0,1-1.935-8.018,15.947,15.947,0,0,1,1.989-8A13.843,13.843,0,0,1,55.4-27.739a15.8,15.8,0,0,1,7.676-1.881,15.8,15.8,0,0,1,7.676,1.881A13.842,13.842,0,0,1,76.2-22.347a15.947,15.947,0,0,1,1.989,8,15.626,15.626,0,0,1-2.044,8A14.237,14.237,0,0,1,70.568-.938,16.077,16.077,0,0,1,62.816.968Zm.26-29.588a14.815,14.815,0,0,0-7.2,1.759,12.857,12.857,0,0,0-5.057,5.009,14.962,14.962,0,0,0-1.859,7.5,15.265,15.265,0,0,0,1.809,7.53,12.828,12.828,0,0,0,4.957,5.008A14.247,14.247,0,0,0,62.816-.032a15.089,15.089,0,0,0,7.276-1.786A13.251,13.251,0,0,0,75.28-6.856a14.641,14.641,0,0,0,1.908-7.5,14.962,14.962,0,0,0-1.859-7.5,12.856,12.856,0,0,0-5.057-5.009A14.815,14.815,0,0,0,63.076-28.62ZM246.928.5h-6.876V-16.016a7.879,7.879,0,0,0-1.789-5.56,6.316,6.316,0,0,0-4.887-1.9,6.4,6.4,0,0,0-4.915,1.9,7.808,7.808,0,0,0-1.813,5.558V.5H219.72V-38.98h6.928v12.4a10.732,10.732,0,0,1,3.126-2.011,13.334,13.334,0,0,1,5.266-1.028,12.565,12.565,0,0,1,6.089,1.465,10.53,10.53,0,0,1,4.257,4.362,14.436,14.436,0,0,1,1.542,6.893Zm-5.876-1h4.876V-16.9a13.456,13.456,0,0,0-1.422-6.419,9.547,9.547,0,0,0-3.855-3.958,11.578,11.578,0,0,0-5.611-1.343,12.341,12.341,0,0,0-4.874.948,9.49,9.49,0,0,0-3.633,2.667l-.885,1.068V-37.98H220.72V-.5h4.928V-16.016a8.758,8.758,0,0,1,2.087-6.246,7.442,7.442,0,0,1,5.641-2.21,7.356,7.356,0,0,1,5.617,2.212,8.828,8.828,0,0,1,2.059,6.244ZM146.828.5H139.9V-29.152h6.928v3.085a9.741,9.741,0,0,1,2.712-2.266,10.766,10.766,0,0,1,5.368-1.287h.5v7.136H153.4a6.78,6.78,0,0,0-4.927,1.624c-1.092,1.076-1.645,3.02-1.645,5.78ZM140.9-.5h4.928V-15.08c0-3.037.654-5.222,1.943-6.492a7.725,7.725,0,0,1,5.629-1.912h1.008v-5.127a9.521,9.521,0,0,0-4.376,1.148,8.858,8.858,0,0,0-3.275,3.227l-.93,1.562v-5.478H140.9ZM130.344.5h-6.98V-23.316h-3.38v-5.836h3.38V-30.68c0-3.43.942-5.981,2.8-7.581,1.836-1.581,4.719-2.383,8.568-2.383h.5v5.94h-.5a5.156,5.156,0,0,0-3.456.88,4.226,4.226,0,0,0-.932,3.144v1.528h5.3v5.836h-5.3Zm-5.98-1h4.98V-24.316h5.3v-3.836h-5.3V-30.68a5.123,5.123,0,0,1,1.252-3.876,5.5,5.5,0,0,1,3.636-1.139v-3.944c-3.351.064-5.844.782-7.416,2.136-1.627,1.4-2.452,3.7-2.452,6.823v2.528h-3.38v3.836h3.38ZM43.088.5H36.16V-29.152h6.928ZM37.16-.5h4.928V-28.152H37.16Zm-18.8,1H3.4V-36.64H17.68a15.351,15.351,0,0,1,6.557,1.3,9.843,9.843,0,0,1,4.212,3.536,9.058,9.058,0,0,1,1.431,4.976,8.582,8.582,0,0,1-1.774,5.512,9.808,9.808,0,0,1-3.338,2.656,8.8,8.8,0,0,1,3.807,2.857,9.551,9.551,0,0,1,2.137,6.083A9.476,9.476,0,0,1,29.2-4.486,10.227,10.227,0,0,1,24.861-.822,15.176,15.176,0,0,1,18.356.5ZM4.4-.5H18.356a14.19,14.19,0,0,0,6.079-1.226,9.244,9.244,0,0,0,3.927-3.3,8.492,8.492,0,0,0,1.35-4.694,8.574,8.574,0,0,0-1.919-5.461,7.541,7.541,0,0,0-4.637-2.887l-1.869-.334,1.791-.63a9.24,9.24,0,0,0,4.247-2.909,7.61,7.61,0,0,0,1.554-4.888,8.073,8.073,0,0,0-1.273-4.436,8.862,8.862,0,0,0-3.8-3.172,14.369,14.369,0,0,0-6.131-1.2H4.4ZM94.484-3.868a7.8,7.8,0,0,1-5.432-1.924,6.27,6.27,0,0,1-2.14-4.816c0-3.5,2.17-6.144,6.451-7.849l.307-.122,10.141,10.2-.329.352A12.038,12.038,0,0,1,94.484-3.868ZM93.429-17.4c-3.711,1.555-5.517,3.78-5.517,6.8a5.24,5.24,0,0,0,1.812,4.076,6.838,6.838,0,0,0,4.76,1.664,10.943,10.943,0,0,0,7.932-3.5ZM62.816-4.18A8.334,8.334,0,0,1,56.5-6.86c-1.66-1.769-2.5-4.29-2.5-7.492a11.693,11.693,0,0,1,1.2-5.512,8.321,8.321,0,0,1,3.291-3.452,9.063,9.063,0,0,1,4.482-1.156,9.208,9.208,0,0,1,4.506,1.154,8.6,8.6,0,0,1,3.368,3.445,11.29,11.29,0,0,1,1.259,5.52A11.07,11.07,0,0,1,70.79-8.8a8.85,8.85,0,0,1-3.445,3.467A9.356,9.356,0,0,1,62.816-4.18Zm.156-19.292a8.074,8.074,0,0,0-3.994,1.028,7.339,7.339,0,0,0-2.9,3.048A10.716,10.716,0,0,0,55-14.352c0,2.94.75,5.23,2.231,6.808A7.276,7.276,0,0,0,62.816-5.18a8.367,8.367,0,0,0,4.051-1.031A7.866,7.866,0,0,0,69.922-9.3,10.091,10.091,0,0,0,71.1-14.352a10.312,10.312,0,0,0-1.133-5.036,7.618,7.618,0,0,0-2.977-3.055A8.219,8.219,0,0,0,62.972-23.472ZM17.836-4.336H9.328V-16.62h8.3a7.689,7.689,0,0,1,5.161,1.68,5.764,5.764,0,0,1,1.995,4.592,5.531,5.531,0,0,1-1.892,4.437A7.6,7.6,0,0,1,17.836-4.336Zm-7.508-1h7.508a6.641,6.641,0,0,0,4.408-1.337,4.518,4.518,0,0,0,1.54-3.675,4.745,4.745,0,0,0-1.645-3.832,6.726,6.726,0,0,0-4.511-1.44h-7.3ZM180.948-16.4H164.014l.07-.562a8.67,8.67,0,0,1,2.763-5.589,8.133,8.133,0,0,1,5.585-2.077,8.889,8.889,0,0,1,5.995,2.1,7.255,7.255,0,0,1,2.513,5.622Zm-15.786-1h14.756a6.1,6.1,0,0,0-2.144-4.374,7.917,7.917,0,0,0-5.341-1.854,7.161,7.161,0,0,0-4.919,1.823A7.513,7.513,0,0,0,165.162-17.4Zm-148-3.056H9.328V-31.8H17.16a7.367,7.367,0,0,1,4.872,1.5,5.222,5.222,0,0,1,1.816,4.2,5.127,5.127,0,0,1-1.823,4.211A7.552,7.552,0,0,1,17.16-20.456Zm-6.832-1H17.16A6.6,6.6,0,0,0,21.4-22.671,4.124,4.124,0,0,0,22.848-26.1a4.213,4.213,0,0,0-1.46-3.439A6.413,6.413,0,0,0,17.16-30.8H10.328ZM39.676-31.948a4.172,4.172,0,0,1-3.058-1.238,4.172,4.172,0,0,1-1.238-3.058A4.172,4.172,0,0,1,36.618-39.3a4.172,4.172,0,0,1,3.058-1.238A4.11,4.11,0,0,1,42.682-39.3a4.172,4.172,0,0,1,1.238,3.058,4.172,4.172,0,0,1-1.238,3.058A4.11,4.11,0,0,1,39.676-31.948Zm0-7.592a3.164,3.164,0,0,0-2.35.946,3.164,3.164,0,0,0-.946,2.35,3.164,3.164,0,0,0,.946,2.35,3.164,3.164,0,0,0,2.35.946,3.1,3.1,0,0,0,2.3-.946,3.164,3.164,0,0,0,.946-2.35,3.164,3.164,0,0,0-.946-2.35A3.1,3.1,0,0,0,39.676-39.54Z" transform="translate(187.5 113.046)" fill="#f27f0b"/></g></svg>